<?xml version="1.0" encoding="UTF-8" standalone="no"?>
<!-- Generator: Adobe Illustrator 22.0.1, SVG Export Plug-In . SVG Version: 6.00 Build 0)  -->

<svg
   xmlns:dc="http://purl.org/dc/elements/1.1/"
   xmlns:cc="http://creativecommons.org/ns#"
   xmlns:rdf="http://www.w3.org/1999/02/22-rdf-syntax-ns#"
   xmlns:svg="http://www.w3.org/2000/svg"
   xmlns="http://www.w3.org/2000/svg"
   xmlns:sodipodi="http://sodipodi.sourceforge.net/DTD/sodipodi-0.dtd"
   xmlns:inkscape="http://www.inkscape.org/namespaces/inkscape"
   version="1.1"
   x="0px"
   y="0px"
   viewBox="0 0 60 60"
   enable-background="new 0 0 48 48"
   xml:space="preserve"
   id="svg2"
   inkscape:version="0.92.3 (2405546, 2018-03-11)"
   sodipodi:docname="Icon.svg"
   width="60"
   height="60"
   inkscape:export-filename="C:\Develop\Qt\ETCOSCTester\ETCOSCTester\res\Icon256.png"
   inkscape:export-xdpi="409.60001"
   inkscape:export-ydpi="409.60001"><metadata
     id="metadata49"><rdf:RDF><cc:Work
         rdf:about=""><dc:format>image/svg+xml</dc:format><dc:type
           rdf:resource="http://purl.org/dc/dcmitype/StillImage" /><dc:title></dc:title></cc:Work></rdf:RDF></metadata><defs
     id="defs47"><radialGradient
       gradientUnits="userSpaceOnUse"
       gradientTransform="matrix(0.02273684,0,0,0.02273684,-77.205638,-104.63353)"
       r="1211.2091"
       cy="5929.8042"
       cx="4721.769"
       id="SVGID_2_"><stop
         offset="0"
         style="stop-color:#1A1A1A"
         id="stop12" /><stop
         offset="0.55"
         style="stop-color:#404040"
         id="stop10" /></radialGradient></defs><sodipodi:namedview
     pagecolor="#ffffff"
     bordercolor="#666666"
     borderopacity="1"
     objecttolerance="10"
     gridtolerance="10"
     guidetolerance="10"
     inkscape:pageopacity="0"
     inkscape:pageshadow="2"
     inkscape:window-width="1920"
     inkscape:window-height="1017"
     id="namedview45"
     showgrid="false"
     fit-margin-top="0"
     fit-margin-left="0"
     fit-margin-right="0"
     fit-margin-bottom="0"
     inkscape:zoom="9.8333334"
     inkscape:cx="8.9088231"
     inkscape:cy="19.949276"
     inkscape:window-x="-8"
     inkscape:window-y="-8"
     inkscape:window-maximized="1"
     inkscape:current-layer="svg2" /><path
     id="path5"
     d="M 55.263159,60 4.736842,60 C 2.120526,60 0,57.879474 0,55.263158 L 0,4.7368413 C 0,2.1205253 2.120526,-6.9384766e-7 4.736842,-6.9384766e-7 l 50.526317,0 c 2.616316,0 4.736842,2.12052599384766 4.736842,4.73684199384766 l 0,50.5263167 C 60.000001,57.879474 57.879475,60 55.263159,60 Z"
     inkscape:connector-curvature="0"
     style="fill:#000000;fill-opacity:1" /><path
     id="path7"
     d="M 58.421054,60 1.578947,60 C 0.710526,60 0,59.289474 0,58.421053 L 0,1.5789463 C 0,0.71052531 0.710526,-6.9384766e-7 1.578947,-6.9384766e-7 l 56.842107,0 c 0.871579,0 1.578947,0.70736800384766 1.578947,1.57894699384766 l 0,56.8421067 C 60.000001,59.289474 59.289475,60 58.421054,60 Z"
     inkscape:connector-curvature="0"
     style="fill:none" /><path
     id="path14"
     d="m 4.256842,3.6157893 c 0,0.353684 -0.287368,0.641052 -0.641052,0.641052 -0.353685,0 -0.641053,-0.287368 -0.641053,-0.641052 0,-0.353685 0.287368,-0.641053 0.641053,-0.641053 0.353684,0 0.641052,0.285789 0.641052,0.641053 z m 4.63579,-0.737369 c -0.407369,0 -0.737369,0.33 -0.737369,0.737369 0,0.407368 0.33,0.737368 0.737369,0.737368 0.407368,0 0.737368,-0.33 0.737368,-0.737368 0,-0.407369 -0.33,-0.737369 -0.737368,-0.737369 z m 5.276842,-0.184737 c -0.508421,0 -0.922105,0.412106 -0.922105,0.922106 0,0.508421 0.412105,0.922105 0.922105,0.922105 0.508421,0 0.922105,-0.412105 0.922105,-0.922105 0,-0.51 -0.413684,-0.922106 -0.922105,-0.922106 z m 5.276842,0 c -0.508421,0 -0.922105,0.412106 -0.922105,0.922106 0,0.508421 0.412105,0.922105 0.922105,0.922105 0.51,0 0.922105,-0.413684 0.922105,-0.922105 0,-0.51 -0.413684,-0.922106 -0.922105,-0.922106 z m 5.276842,-0.09158 c -0.560526,0 -1.013684,0.453158 -1.013684,1.013685 0,0.560526 0.453158,1.013684 1.013684,1.013684 0.560527,0 1.013685,-0.453158 1.013685,-1.013684 0,-0.560527 -0.453158,-1.013685 -1.013685,-1.013685 z m 5.276843,-0.102631 c -0.61579,0 -1.114737,0.498947 -1.114737,1.114737 0,0.615789 0.498947,1.114736 1.114737,1.114736 0.615789,0 1.114736,-0.498947 1.114736,-1.114736 0,-0.614211 -0.498947,-1.114737 -1.114736,-1.114737 z M 56.384212,28.885263 c -0.61579,0 -1.114737,0.498947 -1.114737,1.114737 0,0.615789 0.498947,1.114736 1.114737,1.114736 0.615789,0 1.116315,-0.498947 1.116315,-1.114736 0,-0.61579 -0.500526,-1.114737 -1.116315,-1.114737 z M 35.276843,2.6021043 c -0.560527,0 -1.013684,0.453158 -1.013684,1.013685 0,0.560526 0.453157,1.013684 1.013684,1.013684 0.560526,0 1.013684,-0.453158 1.013684,-1.013684 0,-0.560527 -0.453158,-1.013685 -1.013684,-1.013685 z m 5.276842,0.09158 c -0.508421,0 -0.922105,0.412106 -0.922105,0.922106 0,0.508421 0.412105,0.922105 0.922105,0.922105 0.508421,0 0.922105,-0.412105 0.922105,-0.922105 0,-0.51 -0.412105,-0.922106 -0.922105,-0.922106 z m 5.276842,0 c -0.508421,0 -0.922105,0.412106 -0.922105,0.922106 0,0.508421 0.412105,0.922105 0.922105,0.922105 0.51,0 0.922106,-0.413684 0.922106,-0.922105 0,-0.51 -0.412106,-0.922106 -0.922106,-0.922106 z m 5.276842,0.184737 c -0.407368,0 -0.737368,0.33 -0.737368,0.737369 0,0.407368 0.33,0.737368 0.737368,0.737368 0.407369,0 0.737369,-0.33 0.737369,-0.737368 0,-0.407369 -0.33,-0.737369 -0.737369,-0.737369 z m 5.276843,0.09632 c -0.353685,0 -0.641053,0.287368 -0.641053,0.641053 0,0.353684 0.287368,0.641052 0.641053,0.641052 0.353684,0 0.641052,-0.287368 0.641052,-0.641052 0,-0.355264 -0.285789,-0.641053 -0.641052,-0.641053 z M 3.61579,8.1552673 c -0.407369,0 -0.737369,0.33 -0.737369,0.737369 0,0.407368 0.33,0.737368 0.737369,0.737368 0.407368,0 0.737368,-0.33 0.737368,-0.737368 0,-0.407369 -0.33,-0.737369 -0.737368,-0.737369 z m 5.276842,-0.184737 c -0.508421,0 -0.922106,0.412106 -0.922106,0.922106 0,0.508421 0.412106,0.922105 0.922106,0.922105 0.508421,0 0.922105,-0.412105 0.922105,-0.922105 -0.0016,-0.51 -0.413684,-0.922106 -0.922105,-0.922106 z m 5.276842,0 c -0.508421,0 -0.922105,0.412106 -0.922105,0.922106 0,0.508421 0.412105,0.922105 0.922105,0.922105 0.508421,0 0.922105,-0.412105 0.922105,-0.922105 0,-0.51 -0.413684,-0.922106 -0.922105,-0.922106 z m 5.276842,-0.09158 c -0.560526,0 -1.013684,0.453157 -1.013684,1.013684 0,0.560526 0.453158,1.013684 1.013684,1.013684 0.560527,0 1.013684,-0.453158 1.013684,-1.013684 0,-0.560527 -0.454736,-1.013684 -1.013684,-1.013684 z m 5.276842,-0.461053 c -0.814736,0 -1.474736,0.66 -1.474736,1.474737 0,0.814737 0.66,1.4747367 1.474736,1.4747367 0.814737,0 1.474737,-0.6599997 1.474737,-1.4747367 0,-0.814737 -0.66,-1.474737 -1.474737,-1.474737 z m 5.276843,-0.311053 c -0.985264,0 -1.784211,0.798948 -1.784211,1.784211 0,0.985263 0.798947,1.7842097 1.784211,1.7842097 0.985263,0 1.78421,-0.7989467 1.78421,-1.7842097 0,-0.985263 -0.798947,-1.784211 -1.78421,-1.784211 z M 51.107369,28.215789 c -0.985263,0 -1.78421,0.798947 -1.78421,1.784211 0,0.985263 0.798947,1.78421 1.78421,1.78421 0.985264,0 1.784211,-0.798947 1.784211,-1.78421 0,-0.985264 -0.797368,-1.784211 -1.784211,-1.784211 z M 35.276843,7.4178943 c -0.814737,0 -1.474737,0.66 -1.474737,1.474737 0,0.814737 0.66,1.4747367 1.474737,1.4747367 0.814737,0 1.474737,-0.6599997 1.474737,-1.4747367 0,-0.814737 -0.66,-1.474737 -1.474737,-1.474737 z m 5.276842,0.461053 c -0.560526,0 -1.013684,0.453157 -1.013684,1.013684 0,0.560526 0.453158,1.013684 1.013684,1.013684 0.560526,0 1.013684,-0.453158 1.013684,-1.013684 0,-0.560527 -0.453158,-1.013684 -1.013684,-1.013684 z m 5.276842,0.09158 c -0.508421,0 -0.922105,0.412106 -0.922105,0.922106 0,0.508421 0.412105,0.922105 0.922105,0.922105 0.51,0 0.922106,-0.412105 0.922106,-0.922105 0,-0.51 -0.412106,-0.922106 -0.922106,-0.922106 z m 5.276842,0 c -0.508421,0 -0.922105,0.412106 -0.922105,0.922106 0,0.508421 0.412105,0.922105 0.922105,0.922105 0.51,0 0.922106,-0.412105 0.922106,-0.922105 0,-0.51 -0.412106,-0.922106 -0.922106,-0.922106 z m 5.276843,0.184737 c -0.407369,0 -0.737369,0.33 -0.737369,0.737369 0,0.407368 0.33,0.737368 0.737369,0.737368 0.407368,0 0.737368,-0.33 0.737368,-0.737368 0,-0.407369 -0.33,-0.737369 -0.737368,-0.737369 z M 3.61579,13.24737 c -0.508422,0 -0.922106,0.412105 -0.922106,0.922105 0,0.508421 0.412106,0.922105 0.922106,0.922105 0.508421,0 0.922105,-0.412105 0.922105,-0.922105 -0.0016,-0.51 -0.413684,-0.922105 -0.922105,-0.922105 z m 5.276842,0 c -0.508421,0 -0.922106,0.412105 -0.922106,0.922105 0,0.508421 0.412106,0.922105 0.922106,0.922105 0.508421,0 0.922105,-0.412105 0.922105,-0.922105 -0.0016,-0.51 -0.413684,-0.922105 -0.922105,-0.922105 z m 5.276842,-0.09158 c -0.560526,0 -1.013684,0.453158 -1.013684,1.013684 0,0.560526 0.453158,1.013684 1.013684,1.013684 0.560526,0 1.013684,-0.453158 1.013684,-1.013684 0,-0.560526 -0.454737,-1.013684 -1.013684,-1.013684 z m 5.276842,-0.314211 c -0.732631,0 -1.327895,0.593684 -1.327895,1.327895 0,0.734211 0.593685,1.327895 1.327895,1.327895 0.734211,0 1.327895,-0.593684 1.327895,-1.327895 0,-0.734211 -0.595263,-1.327895 -1.327895,-1.327895 z m 5.276842,-0.456316 c -0.985263,0 -1.78421,0.798948 -1.78421,1.784211 0,0.985263 0.798947,1.784211 1.78421,1.784211 0.985264,0 1.784211,-0.798948 1.784211,-1.784211 0,-0.985263 -0.798947,-1.784211 -1.784211,-1.784211 z m 5.276843,-0.281052 c -1.14,0 -2.065264,0.925263 -2.065264,2.065263 0,1.14 0.925264,2.065263 2.065264,2.065263 1.14,0 2.065263,-0.925263 2.065263,-2.065263 0,-1.141579 -0.925263,-2.065263 -2.065263,-2.065263 z m 5.276842,0.281052 c -0.985263,0 -1.784211,0.798948 -1.784211,1.784211 0,0.985263 0.798948,1.784211 1.784211,1.784211 0.985263,0 1.78421,-0.798948 1.78421,-1.784211 0,-0.985263 -0.798947,-1.784211 -1.78421,-1.784211 z m 5.276842,0.456315 c -0.732632,0 -1.327895,0.593684 -1.327895,1.327895 0,0.734211 0.593684,1.327895 1.327895,1.327895 0.734211,0 1.327895,-0.593684 1.327895,-1.327895 0,-0.734211 -0.595263,-1.327895 -1.327895,-1.327895 z m 5.276842,0.314211 c -0.560526,0 -1.013684,0.453158 -1.013684,1.013684 0,0.560526 0.453158,1.013684 1.013684,1.013684 0.560527,0 1.013684,-0.453158 1.013684,-1.013684 0,-0.560526 -0.453157,-1.013684 -1.013684,-1.013684 z m 5.276842,0.09158 c -0.508421,0 -0.922105,0.412105 -0.922105,0.922105 0,0.508421 0.412105,0.922105 0.922105,0.922105 0.51,0 0.922106,-0.412105 0.922106,-0.922105 0,-0.51 -0.412106,-0.922105 -0.922106,-0.922105 z m 5.276843,0 c -0.508421,0 -0.922106,0.412105 -0.922106,0.922105 0,0.508421 0.412106,0.922105 0.922106,0.922105 0.51,0 0.922105,-0.412105 0.922105,-0.922105 0,-0.51 -0.412105,-0.922105 -0.922105,-0.922105 z M 3.61579,18.524211 c -0.508422,0 -0.922106,0.412105 -0.922106,0.922105 0,0.51 0.412106,0.922105 0.922106,0.922105 0.508421,0 0.922105,-0.412105 0.922105,-0.922105 0,-0.51 -0.413684,-0.922105 -0.922105,-0.922105 z m 5.276842,-0.09158 c -0.560527,0 -1.013684,0.453158 -1.013684,1.013684 0,0.560527 0.453157,1.013684 1.013684,1.013684 0.560526,0 1.013684,-0.453157 1.013684,-1.013684 0,-0.560526 -0.454737,-1.013684 -1.013684,-1.013684 z m 5.276842,-0.314211 c -0.732632,0 -1.326316,0.595264 -1.326316,1.327895 0,0.732632 0.593684,1.327895 1.326316,1.327895 0.732632,0 1.326316,-0.595263 1.326316,-1.327895 0,-0.732631 -0.593684,-1.327895 -1.326316,-1.327895 z m 5.276842,-0.146842 c -0.814737,0 -1.474737,0.66 -1.474737,1.474737 0,0.814737 0.66,1.474737 1.474737,1.474737 0.814737,0 1.474737,-0.66 1.474737,-1.474737 0,-0.814737 -0.66,-1.474737 -1.474737,-1.474737 z m 21.107369,0 c -0.814737,0 -1.474737,0.66 -1.474737,1.474737 0,0.814737 0.66,1.474737 1.474737,1.474737 0.814737,0 1.474737,-0.66 1.474737,-1.474737 0,-0.814737 -0.66,-1.474737 -1.474737,-1.474737 z m 5.276842,0.146842 c -0.732631,0 -1.326316,0.595264 -1.326316,1.327895 0,0.732632 0.593685,1.327895 1.326316,1.327895 0.732632,0 1.326316,-0.595263 1.326316,-1.327895 0,-0.732631 -0.593684,-1.327895 -1.326316,-1.327895 z m 5.276842,0.314211 c -0.560526,0 -1.013684,0.453158 -1.013684,1.013684 0,0.560527 0.453158,1.013684 1.013684,1.013684 0.560527,0 1.013685,-0.453157 1.013685,-1.013684 0,-0.560526 -0.453158,-1.013684 -1.013685,-1.013684 z m 5.276843,0.09158 c -0.508421,0 -0.922106,0.412105 -0.922106,0.922105 0,0.51 0.413685,0.922105 0.922106,0.922105 0.508421,0 0.922105,-0.412105 0.922105,-0.922105 0,-0.51 -0.412105,-0.922105 -0.922105,-0.922105 z M 3.61579,23.709474 c -0.560527,0 -1.013685,0.453158 -1.013685,1.013684 0,0.560527 0.453158,1.013685 1.013685,1.013685 0.560526,0 1.013684,-0.453158 1.013684,-1.013685 0,-0.560526 -0.454737,-1.013684 -1.013684,-1.013684 z m 5.276842,-0.205263 c -0.672632,0 -1.218948,0.546316 -1.218948,1.218947 0,0.672632 0.546316,1.218948 1.218948,1.218948 0.672631,0 1.218947,-0.546316 1.218947,-1.218948 0,-0.672631 -0.546316,-1.218947 -1.218947,-1.218947 z m 10.553684,-0.743684 c -1.084737,0 -1.962631,0.879473 -1.962631,1.962631 0,1.083158 0.879473,1.962632 1.962631,1.962632 1.083158,0 1.962632,-0.879474 1.962632,-1.962632 0,-1.083158 -0.877895,-1.962631 -1.962632,-1.962631 z m 5.276842,-0.197369 c -1.192105,0 -2.16,0.966316 -2.16,2.16 0,1.193685 0.966316,2.16 2.16,2.16 1.192106,0 2.16,-0.966315 2.16,-2.16 0,-1.193684 -0.967894,-2.16 -2.16,-2.16 z m 10.553685,0 c -1.192105,0 -2.16,0.966316 -2.16,2.16 0,1.193685 0.966316,2.16 2.16,2.16 1.192105,0 2.16,-0.966315 2.16,-2.16 0,-1.193684 -0.967895,-2.16 -2.16,-2.16 z m 0,10.553685 c -1.192105,0 -2.16,0.966316 -2.16,2.16 0,1.193684 0.966316,2.16 2.16,2.16 1.192105,0 2.16,-0.966316 2.16,-2.16 0,-1.193684 -0.967895,-2.16 -2.16,-2.16 z m -10.553685,0 c -1.192105,0 -2.16,0.966316 -2.16,2.16 0,1.193684 0.966316,2.16 2.16,2.16 1.192106,0 2.16,-0.966316 2.16,-2.16 0,-1.193684 -0.967894,-2.16 -2.16,-2.16 z m 0,-5.491579 c -1.312105,0 -2.374737,1.06421 -2.374737,2.374737 0,1.310526 1.064211,2.374736 2.374737,2.374736 1.312106,0 2.374737,-1.06421 2.374737,-2.374736 0,-1.310527 -1.062631,-2.374737 -2.374737,-2.374737 z m 10.553685,0 c -1.312105,0 -2.374737,1.06421 -2.374737,2.374737 0,1.310526 1.06421,2.374736 2.374737,2.374736 1.312105,0 2.374737,-1.06421 2.374737,-2.374736 0,-1.310527 -1.062632,-2.374737 -2.374737,-2.374737 z m -5.276842,5.276842 c -1.312106,0 -2.374737,1.06421 -2.374737,2.374737 0,1.310526 1.06421,2.374737 2.374737,2.374737 1.312105,0 2.374737,-1.064211 2.374737,-2.374737 0,-1.310527 -1.062632,-2.374737 -2.374737,-2.374737 z m 0,-10.553685 c -1.312106,0 -2.374737,1.064211 -2.374737,2.374737 0,1.310527 1.06421,2.374737 2.374737,2.374737 1.312105,0 2.374737,-1.06421 2.374737,-2.374737 0,-1.310526 -1.062632,-2.374737 -2.374737,-2.374737 z m 0,5.038422 c -1.443158,0 -2.613158,1.17 -2.613158,2.613158 0,1.443158 1.17,2.613158 2.613158,2.613158 1.443157,0 2.613157,-1.17 2.613157,-2.613158 0,-1.443158 -1.17,-2.613158 -2.613157,-2.613158 z m 10.553684,-4.626317 c -1.084737,0 -1.962632,0.879473 -1.962632,1.962631 0,1.083158 0.879474,1.962632 1.962632,1.962632 1.083158,0 1.962632,-0.879474 1.962632,-1.962632 0,-1.083158 -0.877895,-1.962631 -1.962632,-1.962631 z m 5.276842,0.178421 c -0.985263,0 -1.78421,0.798947 -1.78421,1.78421 0,0.985264 0.798947,1.784211 1.78421,1.784211 0.985263,0 1.784211,-0.798947 1.784211,-1.784211 0,-0.985263 -0.798948,-1.78421 -1.784211,-1.78421 z m 5.276842,0.565263 c -0.672631,0 -1.218947,0.546316 -1.218947,1.218947 0,0.672632 0.546316,1.218948 1.218947,1.218948 0.672632,0 1.218948,-0.546316 1.218948,-1.218948 0,-0.672631 -0.544737,-1.218947 -1.218948,-1.218947 z m 5.276843,0.205263 c -0.560527,0 -1.013685,0.453158 -1.013685,1.013684 0,0.560527 0.454737,1.013685 1.013685,1.013685 0.558947,0 1.013684,-0.453158 1.013684,-1.013685 0,-0.560526 -0.453158,-1.013684 -1.013684,-1.013684 z M 3.61579,28.885263 C 3,28.885263 2.501053,29.38421 2.501053,30 c 0,0.615789 0.498947,1.114736 1.114737,1.114736 0.615789,0 1.114736,-0.498947 1.114736,-1.114736 0,-0.61579 -0.498947,-1.114737 -1.114736,-1.114737 z m 5.276842,-0.669474 c -0.985263,0 -1.784211,0.798947 -1.784211,1.784211 0,0.985263 0.798948,1.78421 1.784211,1.78421 0.985263,0 1.78421,-0.798947 1.78421,-1.78421 0,-0.985264 -0.798947,-1.784211 -1.78421,-1.784211 z m 5.276842,-0.281053 c -1.14,0 -2.065263,0.925264 -2.065263,2.065264 0,1.14 0.925263,2.065263 2.065263,2.065263 1.14,0 2.065263,-0.925263 2.065263,-2.065263 0,-1.14 -0.925263,-2.065264 -2.065263,-2.065264 z m 5.276842,-0.206842 c -1.255263,0 -2.272105,1.016842 -2.272105,2.272106 0,1.255263 1.016842,2.272105 2.272105,2.272105 1.255263,0 2.272105,-1.016842 2.272105,-2.272105 0,-1.255264 -1.016842,-2.272106 -2.272105,-2.272106 z m 21.107369,0 c -1.255263,0 -2.272105,1.016842 -2.272105,2.272106 0,1.255263 1.016842,2.272105 2.272105,2.272105 1.255263,0 2.272105,-1.016842 2.272105,-2.272105 0,-1.255264 -1.016842,-2.272106 -2.272105,-2.272106 z m 5.276842,0.206842 c -1.14,0 -2.065263,0.925264 -2.065263,2.065264 0,1.14 0.925263,2.065263 2.065263,2.065263 1.14,0 2.065263,-0.925263 2.065263,-2.065263 0,-1.14 -0.923684,-2.065264 -2.065263,-2.065264 z M 3.61579,34.263158 c -0.560527,0 -1.013685,0.453157 -1.013685,1.013684 0,0.560526 0.453158,1.013684 1.013685,1.013684 0.560526,0 1.013684,-0.453158 1.013684,-1.013684 0,-0.560527 -0.454737,-1.013684 -1.013684,-1.013684 z m 5.276842,-0.205264 c -0.672632,0 -1.218948,0.546316 -1.218948,1.218948 0,0.672631 0.546316,1.218947 1.218948,1.218947 0.672631,0 1.218947,-0.546316 1.218947,-1.218947 0,-0.672632 -0.546316,-1.218948 -1.218947,-1.218948 z m 5.276842,-0.565263 c -0.985263,0 -1.784211,0.798948 -1.784211,1.784211 0,0.985263 0.798948,1.78421 1.784211,1.78421 0.985263,0 1.784211,-0.798947 1.784211,-1.78421 0,-0.985263 -0.798948,-1.784211 -1.784211,-1.784211 z m 0,-10.553684 c -0.985263,0 -1.784211,0.798947 -1.784211,1.78421 0,0.985264 0.798948,1.784211 1.784211,1.784211 0.985263,0 1.784211,-0.798947 1.784211,-1.784211 0,-0.985263 -0.798948,-1.78421 -1.784211,-1.78421 z m 5.276842,10.375263 c -1.084737,0 -1.962631,0.879474 -1.962631,1.962632 0,1.083158 0.879473,1.962631 1.962631,1.962631 1.083158,0 1.962632,-0.879473 1.962632,-1.962631 0,-1.083158 -0.877895,-1.962632 -1.962632,-1.962632 z M 37.239474,19.446315 c 0,-1.084737 -0.879473,-1.962631 -1.962631,-1.962631 -1.083158,0 -1.962632,0.879473 -1.962632,1.962631 0,1.083158 0.879474,1.962632 1.962632,1.962632 1.083158,0 1.962631,-0.879474 1.962631,-1.962632 z m -4.967368,0 c 0,-1.255263 -1.016842,-2.272105 -2.272105,-2.272105 -1.255264,0 -2.272106,1.016842 -2.272106,2.272105 0,1.255263 1.016842,2.272105 2.272106,2.272105 1.255263,0 2.272105,-1.016842 2.272105,-2.272105 z m -5.586316,0 c 0,-1.084737 -0.879474,-1.962631 -1.962632,-1.962631 -1.083158,0 -1.962631,0.879473 -1.962631,1.962631 0,1.083158 0.879473,1.962632 1.962631,1.962632 1.083158,0 1.962632,-0.879474 1.962632,-1.962632 z m 10.553684,21.107369 c 0,-1.084737 -0.879473,-1.962632 -1.962631,-1.962632 -1.083158,0 -1.962632,0.879474 -1.962632,1.962632 0,1.083158 0.879474,1.962632 1.962632,1.962632 1.083158,0 1.962631,-0.877895 1.962631,-1.962632 z m -4.967368,0 c 0,-1.255263 -1.016842,-2.272105 -2.272105,-2.272105 -1.255264,0 -2.272106,1.016842 -2.272106,2.272105 0,1.255263 1.016842,2.272105 2.272106,2.272105 1.255263,0 2.272105,-1.016842 2.272105,-2.272105 z m -5.586316,0 c 0,-1.084737 -0.879474,-1.962632 -1.962632,-1.962632 -1.083158,0 -1.962631,0.879474 -1.962631,1.962632 0,1.083158 0.879473,1.962632 1.962631,1.962632 1.083158,0 1.962632,-0.877895 1.962632,-1.962632 z M 40.553685,33.31421 c -1.084737,0 -1.962632,0.879474 -1.962632,1.962632 0,1.083158 0.879474,1.962631 1.962632,1.962631 1.083158,0 1.962632,-0.879473 1.962632,-1.962631 0,-1.083158 -0.877895,-1.962632 -1.962632,-1.962632 z m 5.276842,0.178421 c -0.985263,0 -1.78421,0.798948 -1.78421,1.784211 0,0.985263 0.798947,1.78421 1.78421,1.78421 0.985263,0 1.784211,-0.798947 1.784211,-1.78421 0,-0.985263 -0.798948,-1.784211 -1.784211,-1.784211 z m 5.276842,0.565263 c -0.672631,0 -1.218947,0.546316 -1.218947,1.218948 0,0.672631 0.546316,1.218947 1.218947,1.218947 0.672632,0 1.218948,-0.546316 1.218948,-1.218947 0,-0.672632 -0.544737,-1.218948 -1.218948,-1.218948 z m 5.276843,0.205264 c -0.560527,0 -1.013685,0.453157 -1.013685,1.013684 0,0.560526 0.453158,1.013684 1.013685,1.013684 0.560526,0 1.013684,-0.453158 1.013684,-1.013684 0,-0.560527 -0.453158,-1.013684 -1.013684,-1.013684 z M 3.61579,39.631579 c -0.508422,0 -0.922106,0.412105 -0.922106,0.922105 0,0.51 0.412106,0.922105 0.922106,0.922105 0.508421,0 0.922105,-0.412105 0.922105,-0.922105 0,-0.51 -0.413684,-0.922105 -0.922105,-0.922105 z m 5.276842,-0.09158 c -0.560527,0 -1.013684,0.453158 -1.013684,1.013684 0,0.560526 0.453157,1.013684 1.013684,1.013684 0.560526,0 1.013684,-0.453158 1.013684,-1.013684 0,-0.560526 -0.454737,-1.013684 -1.013684,-1.013684 z m 5.276842,-0.314211 c -0.732632,0 -1.326316,0.595263 -1.326316,1.327895 0,0.732632 0.593684,1.327895 1.326316,1.327895 0.732632,0 1.326316,-0.595263 1.326316,-1.327895 0,-0.732632 -0.593684,-1.327895 -1.326316,-1.327895 z m 5.276842,-0.146842 c -0.814737,0 -1.474737,0.66 -1.474737,1.474737 0,0.814737 0.66,1.474737 1.474737,1.474737 0.814737,0 1.474737,-0.66 1.474737,-1.474737 0,-0.814737 -0.66,-1.474737 -1.474737,-1.474737 z m 21.107369,0 c -0.814737,0 -1.474737,0.66 -1.474737,1.474737 0,0.814737 0.66,1.474737 1.474737,1.474737 0.814737,0 1.474737,-0.66 1.474737,-1.474737 0,-0.814737 -0.66,-1.474737 -1.474737,-1.474737 z m 5.276842,0.146842 c -0.732631,0 -1.326316,0.595263 -1.326316,1.327895 0,0.732632 0.593685,1.327895 1.326316,1.327895 0.732632,0 1.326316,-0.595263 1.326316,-1.327895 0,-0.732632 -0.593684,-1.327895 -1.326316,-1.327895 z m 5.276842,0.314211 c -0.560526,0 -1.013684,0.453158 -1.013684,1.013684 0,0.560526 0.453158,1.013684 1.013684,1.013684 0.560527,0 1.013685,-0.453158 1.013685,-1.013684 0,-0.560526 -0.453158,-1.013684 -1.013685,-1.013684 z m 5.276843,0.09158 c -0.508421,0 -0.922106,0.412105 -0.922106,0.922105 0,0.51 0.412106,0.922105 0.922106,0.922105 0.51,0 0.922105,-0.412105 0.922105,-0.922105 0,-0.51 -0.412105,-0.922105 -0.922105,-0.922105 z M 3.61579,44.908421 c -0.508422,0 -0.922106,0.412105 -0.922106,0.922105 0,0.508421 0.412106,0.922106 0.922106,0.922106 0.508421,0 0.922105,-0.412106 0.922105,-0.922106 -0.0016,-0.508421 -0.413684,-0.922105 -0.922105,-0.922105 z m 5.276842,0 c -0.508421,0 -0.922106,0.412105 -0.922106,0.922105 0,0.508421 0.412106,0.922106 0.922106,0.922106 0.508421,0 0.922105,-0.412106 0.922105,-0.922106 -0.0016,-0.508421 -0.413684,-0.922105 -0.922105,-0.922105 z m 5.276842,-0.09158 c -0.560526,0 -1.013684,0.453158 -1.013684,1.013684 0,0.560527 0.453158,1.013684 1.013684,1.013684 0.560526,0 1.013684,-0.453157 1.013684,-1.013684 0,-0.558947 -0.454737,-1.013684 -1.013684,-1.013684 z m 5.276842,-0.312632 c -0.732631,0 -1.327895,0.593685 -1.327895,1.327895 0,0.732632 0.593685,1.327895 1.327895,1.327895 0.734211,0 1.327895,-0.593684 1.327895,-1.327895 0,-0.73421 -0.595263,-1.327895 -1.327895,-1.327895 z m 5.276842,-0.457894 c -0.985263,0 -1.78421,0.798947 -1.78421,1.78421 0,0.985263 0.798947,1.784211 1.78421,1.784211 0.985264,0 1.784211,-0.798948 1.784211,-1.784211 0,-0.985263 -0.798947,-1.78421 -1.784211,-1.78421 z m 5.276843,-0.281053 c -1.14,0 -2.065264,0.925263 -2.065264,2.065263 0,1.14 0.925264,2.065263 2.065264,2.065263 1.14,0 2.065263,-0.925263 2.065263,-2.065263 0,-1.14 -0.925263,-2.065263 -2.065263,-2.065263 z m 5.276842,0.281053 c -0.985263,0 -1.784211,0.798947 -1.784211,1.78421 0,0.985263 0.798948,1.784211 1.784211,1.784211 0.985263,0 1.78421,-0.798948 1.78421,-1.784211 0,-0.985263 -0.798947,-1.78421 -1.78421,-1.78421 z m 5.276842,0.457894 c -0.732632,0 -1.327895,0.593685 -1.327895,1.327895 0,0.732632 0.593684,1.327895 1.327895,1.327895 0.734211,0 1.327895,-0.593684 1.327895,-1.327895 0,-0.73421 -0.595263,-1.327895 -1.327895,-1.327895 z m 5.276842,0.312632 c -0.560526,0 -1.013684,0.453158 -1.013684,1.013684 0,0.560527 0.453158,1.013684 1.013684,1.013684 0.560527,0 1.013684,-0.453157 1.013684,-1.013684 0,-0.558947 -0.453157,-1.013684 -1.013684,-1.013684 z m 5.276842,0.09158 c -0.508421,0 -0.922105,0.412105 -0.922105,0.922105 0,0.508421 0.412105,0.922106 0.922105,0.922106 0.51,0 0.922106,-0.412106 0.922106,-0.922106 0,-0.508421 -0.412106,-0.922105 -0.922106,-0.922105 z m 5.276843,0 c -0.508421,0 -0.922106,0.412105 -0.922106,0.922105 0,0.508421 0.412106,0.922106 0.922106,0.922106 0.51,0 0.922105,-0.412106 0.922105,-0.922106 0,-0.508421 -0.412105,-0.922105 -0.922105,-0.922105 z M 3.61579,50.37 c -0.407369,0 -0.737369,0.33 -0.737369,0.737368 0,0.407369 0.33,0.737369 0.737369,0.737369 0.407368,0 0.737368,-0.33 0.737368,-0.737369 C 4.353158,50.7 4.023158,50.37 3.61579,50.37 Z m 5.276842,-0.183158 c -0.508421,0 -0.922106,0.412105 -0.922106,0.922105 0,0.51 0.412106,0.922106 0.922106,0.922106 0.508421,0 0.922105,-0.412106 0.922105,-0.922106 0,-0.51 -0.413684,-0.922105 -0.922105,-0.922105 z m 5.276842,0 c -0.508421,0 -0.922105,0.412105 -0.922105,0.922105 0,0.51 0.412105,0.922106 0.922105,0.922106 0.508421,0 0.922105,-0.412106 0.922105,-0.922106 0,-0.51 -0.413684,-0.922105 -0.922105,-0.922105 z m 5.276842,-0.09316 c -0.560526,0 -1.013684,0.453158 -1.013684,1.013684 0,0.560527 0.453158,1.013685 1.013684,1.013685 0.560527,0 1.013684,-0.453158 1.013684,-1.013685 0,-0.560526 -0.454736,-1.013684 -1.013684,-1.013684 z m 5.276842,-0.461052 c -0.814736,0 -1.474736,0.66 -1.474736,1.474736 0,0.814737 0.66,1.474737 1.474736,1.474737 0.814737,0 1.474737,-0.66 1.474737,-1.474737 0,-0.814736 -0.66,-1.474736 -1.474737,-1.474736 z m 5.276843,-0.309474 c -0.985264,0 -1.784211,0.798947 -1.784211,1.78421 0,0.985264 0.798947,1.784211 1.784211,1.784211 0.985263,0 1.78421,-0.798947 1.78421,-1.784211 0,-0.985263 -0.798947,-1.78421 -1.78421,-1.78421 z m 5.276842,0.309474 c -0.814737,0 -1.474737,0.66 -1.474737,1.474736 0,0.814737 0.66,1.474737 1.474737,1.474737 0.814737,0 1.474737,-0.66 1.474737,-1.474737 0,-0.814736 -0.66,-1.474736 -1.474737,-1.474736 z m 5.276842,0.461052 c -0.560526,0 -1.013684,0.453158 -1.013684,1.013684 0,0.560527 0.453158,1.013685 1.013684,1.013685 0.560526,0 1.013684,-0.453158 1.013684,-1.013685 0,-0.560526 -0.453158,-1.013684 -1.013684,-1.013684 z m 5.276842,0.09316 c -0.508421,0 -0.922105,0.412105 -0.922105,0.922105 0,0.51 0.412105,0.922106 0.922105,0.922106 0.51,0 0.922106,-0.412106 0.922106,-0.922106 0,-0.51 -0.412106,-0.922105 -0.922106,-0.922105 z m 5.276842,0 c -0.508421,0 -0.922105,0.412105 -0.922105,0.922105 0,0.51 0.412105,0.922106 0.922105,0.922106 0.51,0 0.922106,-0.412106 0.922106,-0.922106 0,-0.51 -0.412106,-0.922105 -0.922106,-0.922105 z M 56.384212,50.37 c -0.407369,0 -0.737369,0.33 -0.737369,0.737368 0,0.407369 0.33,0.737369 0.737369,0.737369 0.407368,0 0.737368,-0.33 0.737368,-0.737369 C 57.12158,50.7 56.79158,50.37 56.384212,50.37 Z M 3.61579,55.743158 c -0.353685,0 -0.641053,0.287368 -0.641053,0.641053 0,0.353684 0.287368,0.641052 0.641053,0.641052 0.353684,0 0.641052,-0.287368 0.641052,-0.641052 0,-0.353685 -0.287368,-0.641053 -0.641052,-0.641053 z m 5.276842,-0.09632 c -0.407369,0 -0.737369,0.33 -0.737369,0.737369 0,0.407368 0.33,0.737368 0.737369,0.737368 0.407368,0 0.737368,-0.33 0.737368,-0.737368 0,-0.407369 -0.33,-0.737369 -0.737368,-0.737369 z m 5.276842,-0.183158 c -0.508421,0 -0.922105,0.412106 -0.922105,0.922106 0,0.508421 0.412105,0.922105 0.922105,0.922105 0.508421,0 0.922105,-0.412105 0.922105,-0.922105 0,-0.51 -0.413684,-0.922106 -0.922105,-0.922106 z m 5.276842,0 c -0.508421,0 -0.922105,0.412106 -0.922105,0.922106 0,0.508421 0.412105,0.922105 0.922105,0.922105 0.51,0 0.922105,-0.413684 0.922105,-0.923684 0,-0.508421 -0.413684,-0.920527 -0.922105,-0.920527 z m 5.276842,-0.09316 c -0.560526,0 -1.013684,0.453158 -1.013684,1.013685 0,0.560526 0.453158,1.013684 1.013684,1.013684 0.560527,0 1.013685,-0.453158 1.013685,-1.013684 0,-0.558948 -0.453158,-1.013685 -1.013685,-1.013685 z m 5.276843,-0.101052 c -0.61579,0 -1.114737,0.498947 -1.114737,1.114737 0,0.615789 0.498947,1.114737 1.114737,1.114737 0.615789,0 1.114736,-0.498948 1.114736,-1.114737 0,-0.61579 -0.498947,-1.114737 -1.114736,-1.114737 z m 5.276842,0.101052 c -0.560527,0 -1.013684,0.453158 -1.013684,1.013685 0,0.560526 0.453157,1.013684 1.013684,1.013684 0.560526,0 1.013684,-0.453158 1.013684,-1.013684 0,-0.558948 -0.453158,-1.013685 -1.013684,-1.013685 z m 5.276842,0.09316 c -0.508421,0 -0.922105,0.412106 -0.922105,0.922106 0,0.508421 0.412105,0.922105 0.922105,0.922105 0.508421,0 0.922105,-0.412105 0.922105,-0.922105 0,-0.51 -0.412105,-0.922106 -0.922105,-0.922106 z m 5.276842,0 c -0.508421,0 -0.922105,0.412106 -0.922105,0.922106 0,0.508421 0.412105,0.922105 0.922105,0.922105 0.51,0 0.922106,-0.412105 0.922106,-0.922105 0,-0.51 -0.412106,-0.922106 -0.922106,-0.922106 z m 5.276842,0.183158 c -0.407368,0 -0.737368,0.33 -0.737368,0.737369 0,0.407368 0.33,0.737368 0.737368,0.737368 0.407369,0 0.737369,-0.33 0.737369,-0.737368 0,-0.407369 -0.33,-0.737369 -0.737369,-0.737369 z m 5.276843,0.09632 c -0.353685,0 -0.641053,0.287368 -0.641053,0.641053 0,0.353684 0.287368,0.641052 0.641053,0.641052 0.353684,0 0.641052,-0.287368 0.641052,-0.641052 0,-0.353685 -0.285789,-0.641053 -0.641052,-0.641053 z"
     style="fill:url(#SVGID_2_)"
     inkscape:connector-curvature="0" /><path
     id="path4186"
     d="m 18,18 24.000001,0 0,24 L 18,42 Z"
     inkscape:connector-curvature="0"
     style="fill:none" /><text
     xml:space="preserve"
     style="font-style:normal;font-variant:normal;font-weight:normal;font-stretch:normal;font-size:43.73731995px;line-height:1.25;font-family:Bahnschrift;-inkscape-font-specification:Bahnschrift;letter-spacing:0px;word-spacing:0px;fill:#000000;fill-opacity:1;stroke:none;stroke-width:2.7335825"
     x="3.2621472"
     y="44.586224"
     id="text4527"><tspan
       sodipodi:role="line"
       id="tspan4525"
       x="3.2621472"
       y="44.586224"
       style="font-style:normal;font-variant:normal;font-weight:normal;font-stretch:normal;font-family:Playbill;-inkscape-font-specification:Playbill;fill:#ff0000;fill-opacity:1;stroke-width:2.7335825">LOGS</tspan></text>
</svg>